<svg xmlns="http://www.w3.org/2000/svg" viewBox="0 0 429.52 338.58"><defs><style>.a{fill:#ff3952;}</style></defs><title>Logo</title><path class="a" d="M189.61,168.5c-11.44,0-22.88,0-34.31,0-6.4,0-12.8.29-19.19,0.29-3.59,0-7.19-.27-10.77-0.48-2-.12-4.06-0.41-6.09-0.51a9.45,9.45,0,0,1-7.62-4.55,15.45,15.45,0,0,1-2.37-7.08,116.49,116.49,0,0,1-.89-17.23c0.2-6.27.31-12.56,0.73-18.82a12.65,12.65,0,0,1,12.7-11.88c9.28,0.17,18.56.09,27.84,0.09,16.36,0,32.71,0,49.07,0,1.23,0,1.56-.36,1.54-1.57Q200,92.13,199.8,77.49c0-1-.46-1.16-1.32-1.17-10.36,0-20.71-.12-31.07-0.09-10.91,0-21.83.22-32.74,0.2-4.87,0-9.74-.44-14.62-0.52-4.68-.08-9.36.05-14,0.1-7.28.07-14.56,0.12-21.84,0.22-2.32,0-4.63.22-6.95,0.28a0.9,0.9,0,0,0-1,1.15c0.13,5.52.34,11,.35,16.55,0,8.4-.15,16.79-0.16,25.19q0,8.75.19,17.5a146.4,146.4,0,0,1-.7,18A98.68,98.68,0,0,0,75.85,166c0.14,9.27.39,18.54,0.5,27.82,0.07,6.44,0,12.88,0,19.32,0,6.28-.09,12.55-0.07,18.83q0.09,24.95.24,49.9,0,5,0,10.08c0,0.79.11,1.24,1.11,1.24q19.43,0,38.87,0,16.44,0.05,32.87.25c4.48,0,8.95.31,13.42,0.31,4.68,0,9.35-.26,14-0.33,7.32-.11,14.64-0.15,22-0.21,1.82,0,1.83,0,1.84-1.87q0.08-11.52.16-23c0-1.84.08-3.68,0.1-5.52s0-1.7-1.75-1.7c-13,0-26,0-39,0-5.19,0-10.38.25-15.58,0.22-8.28-.06-16.56-0.18-24.83-0.44-4.81-.15-9.46-4.74-10.45-9.54a57.11,57.11,0,0,1-.94-11.65c0-7.15,0-14.3,0-21.45a42.75,42.75,0,0,1,.63-7.39,12.3,12.3,0,0,1,11.82-9.91c5.64-.1,11.28,0,16.92-0.16,14.07-.31,28.14-0.81,42.21-1,8.63-.12,17.29-0.19,25.9.37,11.47,0.74,22.94.53,34.41,0.69,2.8,0,5.6,0,8.4.12,6,0.18,11.57,5.53,11.73,11.54,0.17,6.59,0,13.18.1,19.77,0,2.32.33,4.63,0.29,6.94-0.06,3.47-.31,6.94-0.47,10.41a10.48,10.48,0,0,0,.06,1.07c0.19,3.35.53,6.7,0.55,10,0.1,18.91.25,37.83,0.1,56.74-0.06,7.62-.91,15.22-1.33,22.84a15.1,15.1,0,0,1-2.19,7.5,10.13,10.13,0,0,1-7.92,4.91,222.12,222.12,0,0,1-27.67.85c-4.08-.07-8.16.12-12.24,0.12-4.24,0-8.47-.09-12.71-0.11-5.08,0-10.16-.08-15.23-0.05-8.52,0-17,.13-25.56.21-7,.07-13.92.22-20.88,0.19-4.8,0-9.59-.39-14.38-0.43-8-.07-15.92,0-23.87,0-12.56,0-25.12,0-37.68,0-3.28,0-6.56.27-9.83,0.2-7.23-.15-14.47-0.31-21.7-0.72a12.62,12.62,0,0,1-12-12.63c0.15-9.24.06-18.48,0.09-27.72q0.1-25.19.24-50.37c0-5.28.3-10.55,0.28-15.83,0-3.63-.51-7.26-0.51-10.9q-0.09-38.76,0-77.51c0-5.23.37-10.46,0.53-15.69,0-1.48,0-3,0-4.44-0.08-8.16-.22-16.31-0.24-24.47,0-14.31,0-28.63,0-42.94q0-17.33,0-34.67c0-2.6,0-5.2.11-7.8C16.48,21.79,21.81,16.25,28,16.09c6.55-.16,13.1,0,19.66-0.09,2.4,0,4.79-.3,7.18-0.3q26.82,0,53.64,0c13.72,0,27.43.2,41.15,0.22q29.75,0,59.51-.05c12.64,0,25.28,0,37.91-.29a13,13,0,0,1,13.13,13c0.08,7.31.47,14.63,0.63,21.94,0.05,2.43-.21,4.87-0.3,7.31-0.08,2.16-.13,4.31-0.17,6.47-0.11,6-.27,12.07-0.28,18.11s0.19,12,.23,18c0,5.64-.05,11.28,0,16.91,0,2.31.36,4.62,0.41,6.93,0.06,2.75-.06,5.51-0.06,8.26,0,3.44.09,6.87,0.05,10.31,0,4.79,0,9.59-.28,14.38-0.3,5.86-5.78,11.2-11.62,11.26-12.72.13-25.44,0.09-38.15,0.16-3,0-6,.2-9,0.23-4,0-8,0-12,0V168.5Z" transform="translate(-15.85 -15.59)"/><path class="a" d="M291.94,278.63c0.18-13.23.28-17.07,0.41-30.31,0-4.07-.18-8.14-0.17-12.22,0-5.44.16-10.88,0.22-16.32q0.14-10.85.24-21.69c0.11-10.44.34-20.88,0.29-31.31s-0.38-21-.53-31.55c-0.13-8.92-.23-17.84-0.23-26.76,0-5.08.31-10.15,0.29-15.23,0-9.52-.25-19-0.27-28.55,0-5,.28-9.91.35-14.87,0.06-4.44-.14-8.88.06-13.31a67.67,67.67,0,0,1,1.24-10.94c0.9-4.21,3.34-7.45,7.77-8.6a31.35,31.35,0,0,1,4.64-.54c12-1.24,24-.46,36.08-0.31l4,0c9,0.11,18,.29,27,0.3,7.36,0,14.71-.27,22.07-0.28,10.08,0,20.15.12,30.23,0.21,2.4,0,4.8.11,7.2,0.16a12.19,12.19,0,0,1,11.73,10.35,60.58,60.58,0,0,1,.82,10.82c0,7.19.05,14.38,0,21.57a42.72,42.72,0,0,1-.64,7.39,12.26,12.26,0,0,1-11.85,9.87c-11.88.11-23.76,0.14-35.64,0.16-8.07,0-16.15,0-24.22-.06-6.36-.06-12.71-0.27-19.07-0.4-1.6,0-1.6,0-1.58,1.6,0.12,9.08.29,18.15,0.35,27.23,0,3.32-.28,6.63-0.27,10,0,2.67.32,5.33,0.36,8,0.07,4.55,0,9.11.05,13.66,0.1,11.52.36,23,.3,34.55-0.06,12.88-.51,25.75-0.58,38.63-0.07,12.35.21,24.71,0.18,37.07,0,7.27-.43,14.54-0.49,21.81-0.06,7,.11,14.08.18,21.11,0,0.76.1,1.52,0,2.28-0.07,1,.26,1.39,1.35,1.38,6.6-.06,13.2-0.09,19.79,0,8.08,0,16.16.2,24.24,0.25,9.15,0.06,18.3,0,27.45.08,2.6,0,5.2.11,7.8,0.18,5.18,0.13,10,4.46,11.09,9.54a56.56,56.56,0,0,1,1,11.65c0,7.15,0,14.3,0,21.45a45.87,45.87,0,0,1-.62,7.4,12.54,12.54,0,0,1-12,10c-11.8,0-23.6.13-35.4,0.11q-27.89,0-55.77-.23-18.29-.09-36.59-0.24c-5.31,0-10.39-4.5-11.49-10.05a18.4,18.4,0,0,1-.31-3c-0.24-7.87-.54-15.75-0.65-23.62-0.06-4.39.26-8.79,0.31-13.19,0.06-5.28-.1-8.5-0.1-13.77C292.46,288.63,291.94,281.86,291.94,278.63Z" transform="translate(-15.85 -15.59)"/><path class="a" d="M415,261.79c-5.68,0-11.36-.12-17,0a12.55,12.55,0,0,1-12.66-11.9c-0.44-8-.73-16-0.67-24a88.46,88.46,0,0,1,1.39-14.88,10.21,10.21,0,0,1,7.78-8.57,32.06,32.06,0,0,1,4.64-.53c11.69-1.21,23.41-.53,35.11-0.3,4.84,0.1,9.58,4.67,10.59,9.53a56.64,56.64,0,0,1,.95,11.65c0,6.79.05,13.58,0,20.37a51.33,51.33,0,0,1-.64,8.47,12.3,12.3,0,0,1-11.9,10c-2.92.06-5.84,0.08-8.75,0.1s-5.84,0-8.76,0v0.06Z" transform="translate(-15.85 -15.59)"/><path class="a" d="M384.77,139.1q0-8.64,0-17.28a12.41,12.41,0,0,1,10-12.23,18.88,18.88,0,0,1,3.09-.32c7.87-.24,15.74-0.66,23.61-0.61A80.08,80.08,0,0,1,435.43,110c4.23,0.78,7.48,3.3,8.61,7.73a38.4,38.4,0,0,1,.58,5.35c1.19,11.05.47,22.13,0.3,33.19a12.66,12.66,0,0,1-.71,4.09c-1.64,4.47-4.95,6.87-9.61,7.87a51.8,51.8,0,0,1-10.82.83c-7.15,0-14.3.06-21.45,0a43.61,43.61,0,0,1-7.51-.64,12.27,12.27,0,0,1-9.89-11.83c-0.07-5.84,0-11.67,0-17.51h-0.15Z" transform="translate(-15.85 -15.59)"/></svg>